<svg width="135" height="146" viewBox="0 0 135 146" fill="none" xmlns="http://www.w3.org/2000/svg">
<rect x="-1.78814e-07" y="3.20291" width="73.4933" height="73.4933" transform="matrix(0.8456 0.533818 -0.8456 0.533818 70.4877 62.45)" fill="white" stroke="black" stroke-width="6"/>
<line x1="14.5309" y1="96.5092" x2="75.889" y2="136.525" stroke="black"/>
<line x1="25.2009" y1="89.3953" x2="86.559" y2="129.411" stroke="black"/>
<line x1="35.8727" y1="82.2813" x2="97.2308" y2="122.297" stroke="black"/>
<line x1="46.5427" y1="75.1673" x2="107.901" y2="115.183" stroke="black"/>
<line x1="57.2145" y1="68.0532" x2="118.573" y2="108.069" stroke="black"/>
<rect x="-1.78814e-07" y="3.20291" width="73.4933" height="73.4933" transform="matrix(0.8456 0.533818 -0.8456 0.533818 70.4877 42.6157)" fill="white" stroke="black" stroke-width="6"/>
<line y1="-0.5" x2="69.9626" y2="-0.5" transform="matrix(-0.837611 0.546268 0.546268 0.837611 118.299 78.9491)" stroke="black"/>
<line y1="-0.5" x2="69.9626" y2="-0.5" transform="matrix(-0.837611 0.546268 0.546268 0.837611 108.107 72.1547)" stroke="black"/>
<line y1="-0.5" x2="69.9626" y2="-0.5" transform="matrix(-0.837611 0.546268 0.546268 0.837611 97.916 65.3604)" stroke="black"/>
<line y1="-0.5" x2="69.9626" y2="-0.5" transform="matrix(-0.837611 0.546268 0.546268 0.837611 87.7246 58.566)" stroke="black"/>
<line y1="-0.5" x2="69.9626" y2="-0.5" transform="matrix(-0.837611 0.546268 0.546268 0.837611 77.5332 51.7716)" stroke="black"/>
<rect x="-1.78814e-07" y="3.20291" width="73.4933" height="73.4933" transform="matrix(0.8456 0.533818 -0.8456 0.533818 70.4877 22.0544)" fill="white" stroke="black" stroke-width="6"/>
<line y1="-0.5" x2="69.9626" y2="-0.5" transform="matrix(-0.837611 0.546268 0.546268 0.837611 118.299 58.0735)" stroke="black"/>
<line y1="-0.5" x2="69.9626" y2="-0.5" transform="matrix(-0.837611 0.546268 0.546268 0.837611 108.107 51.2791)" stroke="black"/>
<line y1="-0.5" x2="69.9626" y2="-0.5" transform="matrix(-0.837611 0.546268 0.546268 0.837611 97.916 44.4846)" stroke="black"/>
<line y1="-0.5" x2="69.9626" y2="-0.5" transform="matrix(-0.837611 0.546268 0.546268 0.837611 87.7246 37.6904)" stroke="black"/>
<line y1="-0.5" x2="69.9626" y2="-0.5" transform="matrix(-0.837611 0.546268 0.546268 0.837611 76.6973 31.731)" stroke="black"/>
<rect x="-1.78814e-07" y="3.20291" width="73.4933" height="73.4933" transform="matrix(0.8456 0.533818 -0.8456 0.533818 70.4877 1.49314)" fill="white" stroke="black" stroke-width="6"/>
<line x1="17.5349" y1="35.7941" x2="77.6139" y2="74.976" stroke="black"/>
<line x1="27.9821" y1="28.8284" x2="88.0611" y2="68.0103" stroke="black"/>
<line x1="38.4313" y1="21.8628" x2="98.5103" y2="61.0448" stroke="black"/>
<line x1="48.8806" y1="14.8971" x2="108.96" y2="54.0791" stroke="black"/>
<line x1="59.3278" y1="7.93141" x2="119.407" y2="47.1134" stroke="black"/>
</svg>
