<svg width="135" height="126" viewBox="0 0 135 126" fill="none" xmlns="http://www.w3.org/2000/svg">
<rect x="-1.78814e-07" y="3.20291" width="73.4933" height="73.4933" transform="matrix(0.8456 0.533818 -0.8456 0.533818 69.9271 42.6157)" fill="white" stroke="black" stroke-width="6"/>
<line x1="16.1384" y1="76.9566" x2="76.7482" y2="116.485" stroke="black"/>
<line x1="26.6794" y1="69.9293" x2="87.2892" y2="109.457" stroke="black"/>
<line x1="37.2204" y1="62.9021" x2="97.8302" y2="102.43" stroke="black"/>
<line x1="47.7614" y1="55.8749" x2="108.371" y2="95.403" stroke="black"/>
<line x1="58.3024" y1="48.8477" x2="118.912" y2="88.3758" stroke="black"/>
<rect x="-1.78814e-07" y="3.20291" width="73.4933" height="73.4933" transform="matrix(0.8456 0.533818 -0.8456 0.533818 69.9271 22.0544)" fill="white" stroke="black" stroke-width="6"/>
<path d="M15.4487 56.3642L76.2161 95.6782" stroke="black"/>
<line x1="28.6638" y1="51.3528" x2="86.2805" y2="88.9289" stroke="black"/>
<line x1="38.6852" y1="44.6725" x2="96.302" y2="82.2486" stroke="black"/>
<line x1="48.7048" y1="37.9923" x2="106.322" y2="75.5685" stroke="black"/>
<line x1="58.7243" y1="31.3122" x2="116.341" y2="68.8883" stroke="black"/>
<rect x="-1.78814e-07" y="3.20291" width="73.4933" height="73.4933" transform="matrix(0.8456 0.533818 -0.8456 0.533818 69.9271 1.49314)" fill="white" stroke="black" stroke-width="6"/>
<line x1="16.1384" y1="35.4231" x2="77.6947" y2="75.5686" stroke="black"/>
<line x1="26.8434" y1="28.2862" x2="88.3998" y2="68.4316" stroke="black"/>
<line x1="37.5485" y1="21.1492" x2="99.1049" y2="61.2946" stroke="black"/>
<line x1="48.2536" y1="14.0122" x2="109.81" y2="54.1577" stroke="black"/>
<line x1="58.9606" y1="6.87514" x2="120.517" y2="47.0206" stroke="black"/>
</svg>
