<svg width="691" height="691" viewBox="0 0 691 691" fill="none" xmlns="http://www.w3.org/2000/svg">
<rect width="691" height="691" fill="#FFD43A"/>
<path d="M529 316.383L341.617 129M341.617 129L160.597 310.019M341.617 129L347.981 497.403" stroke="black" stroke-width="37"/>
<path d="M191.41 558.18V577.08H215.84V558.18H228.58V609H215.84V587.51H191.41V609H178.67V558.18H191.41ZM232.85 609L256.93 558.18H269.11L292.28 609H278.14L273.52 598.22H251.12L246.57 609H232.85ZM255.46 587.93H268.9L262.11 572.25L255.46 587.93ZM296.522 609V558.18H329.352C340.762 558.18 346.502 562.38 346.502 570.85C346.502 575.75 344.122 579.67 339.572 581.98C345.452 583.87 348.392 588.14 348.392 594.51C348.392 603.26 342.442 609 331.942 609H296.522ZM309.262 587.44V598.57H326.202C332.222 598.57 335.092 597.94 335.092 593.32C335.092 588.98 332.292 587.44 326.202 587.44H309.262ZM309.262 568.61V578.55H324.312C330.332 578.55 333.202 577.64 333.202 573.3C333.202 569.38 330.402 568.61 324.312 568.61H309.262ZM357.02 558.18H402.17V568.61H369.76V577.08H398.6V587.51H369.76V598.57H402.17V609H357.02V558.18ZM411.639 609V558.18H441.739C453.639 558.18 460.429 564.76 460.429 575.47C460.429 586.25 453.639 593.04 441.739 593.04H424.379V609H411.639ZM424.379 568.61V582.61H436.069C443.979 582.61 447.689 581.28 447.689 575.68C447.689 569.87 444.469 568.61 436.909 568.61H424.379ZM462.098 558.18H478.128L489.818 574.07L501.508 558.18H517.188L497.168 583.1L517.888 609H501.508L489.678 592.69L477.078 609H461.118L482.048 583.24L462.098 558.18Z" fill="black"/>
</svg>
