<?xml version="1.0" standalone="no"?>
<!DOCTYPE svg PUBLIC "-//W3C//DTD SVG 20010904//EN"
 "http://www.w3.org/TR/2001/REC-SVG-20010904/DTD/svg10.dtd">
<svg version="1.0" xmlns="http://www.w3.org/2000/svg"
 width="2000.000000pt" height="2000.000000pt" viewBox="0 0 2000.000000 2000.000000"
 preserveAspectRatio="xMidYMid meet">

<g transform="translate(0.000000,2000.000000) scale(0.100000,-0.100000)"
fill="#000000" stroke="none">
<path d="M1850 9895 l0 -8195 8185 0 8185 0 0 8195 0 8195 -8185 0 -8185 0 0
-8195z m2480 7860 c-30 -8 -512 -124 -1070 -259 -558 -134 -1027 -247 -1042
-251 l-28 -7 0 266 0 266 1098 -1 c946 -1 1089 -3 1042 -14z m800 -725 c-1603
-407 -2921 -740 -2928 -740 -10 0 -12 59 -10 277 l3 277 1905 462 1905 462
1020 1 1020 0 -2915 -739z m6460 618 l0 -123 -4648 -1040 c-2556 -571 -4671
-1044 -4700 -1051 l-52 -12 0 227 0 227 3973 946 3972 946 728 1 727 1 0 -122z
m920 -2085 l0 -2208 -280 280 -280 280 0 1927 0 1928 280 0 280 0 0 -2207z
m980 -495 l0 -2703 -305 305 -305 305 0 2397 0 2398 305 0 305 0 0 -2702z
m940 -475 l0 -3178 -295 295 -295 295 0 2882 0 2883 295 0 295 0 0 -3177z
m880 -445 l-1 -3623 -259 263 -260 262 0 3360 0 3360 260 0 260 0 0 -3622z
m900 -455 l-1 -4078 -239 245 -239 245 -1 3833 0 3832 240 0 240 0 0 -4077z
m1119 4073 c-2 -3 -171 -71 -374 -151 -204 -81 -376 -149 -382 -152 -10 -4
-13 30 -13 151 l0 156 387 0 c212 0 384 -2 382 -4z m577 -734 c-6 -5 -1328
-492 -1339 -492 -4 0 -6 111 -5 246 l3 246 670 258 670 258 3 -256 c1 -140 0
-257 -2 -260z m-6316 -279 l0 -218 -4688 -1034 c-2578 -569 -4693 -1036 -4699
-1039 -10 -3 -13 47 -13 231 l0 236 33 6 c17 4 2122 462 4677 1020 2555 557
4655 1013 4668 1014 l22 1 0 -217z m6320 -355 l0 -193 -613 -228 c-336 -126
-640 -239 -674 -252 l-63 -24 0 192 0 192 673 252 c369 138 673 252 675 252 1
1 2 -86 2 -191z m-6324 -705 c-2 -2 -2080 -490 -4618 -1083 -2537 -593 -4650
-1087 -4696 -1098 l-82 -19 2 235 3 236 4695 1006 4695 1006 3 -140 c1 -76 1
-141 -2 -143z m6324 -241 l0 -278 -667 -147 c-368 -81 -671 -147 -675 -147 -5
0 -8 97 -8 215 l0 214 38 11 c25 7 1170 365 1310 409 1 1 2 -124 2 -277z
m-6320 -691 l0 -479 -384 386 c-212 213 -381 388 -376 390 11 4 743 181 753
181 4 1 7 -215 7 -478z m1685 -2854 l3018 -3012 -152 -133 -153 -133 -119 113
c-199 190 -6116 6053 -6112 6057 3 5 471 119 489 120 6 1 1369 -1355 3029
-3012z m-944 -449 c1779 -1750 3234 -3185 3234 -3188 0 -11 -385 -342 -394
-338 -13 5 -6621 6569 -6621 6577 0 6 491 128 526 130 16 1 894 -858 3255
-3181z m5579 2702 l0 -340 -675 0 -675 0 0 315 0 315 53 1 c65 1 1279 46 1290
48 4 0 7 -152 7 -339z m-6513 -3156 c1880 -1857 3418 -3379 3418 -3383 0 -16
-397 -352 -409 -348 -7 3 -1598 1568 -3536 3478 -2223 2191 -3518 3475 -3509
3478 8 2 149 37 314 77 165 40 301 73 302 73 1 1 1540 -1518 3420 -3375z
m-963 -478 c1983 -1962 3606 -3572 3606 -3577 0 -10 -459 -409 -471 -409 -8 0
-7511 7357 -7517 7370 -1 4 68 24 155 45 87 20 255 61 373 90 118 29 222 53
231 52 9 -1 1639 -1608 3623 -3571z m-4611 2967 l197 -194 0 -243 0 -244 -197
-177 c-109 -98 -215 -194 -235 -214 l-38 -35 0 683 0 683 38 -32 c20 -18 126
-120 235 -227z m-623 -602 l0 -819 -242 -220 -243 -219 -3 980 c-1 539 -1 981
1 983 4 5 450 112 470 113 16 1 17 -44 17 -818z m-850 -484 l0 -1103 -252
-228 -253 -227 -3 1267 c-1 697 0 1269 2 1271 4 4 474 120 494 122 9 1 12
-226 12 -1102z m13560 603 l0 -320 -675 0 -675 0 0 320 0 320 675 0 675 0 0
-320z m-14410 -1087 l0 -1388 -225 -203 -225 -202 0 1535 0 1535 28 7 c15 4
115 28 222 54 107 26 196 48 198 48 1 1 2 -623 2 -1386z m-820 -470 l0 -1658
-216 -195 c-119 -107 -229 -205 -245 -218 l-29 -23 0 1818 0 1819 233 56 c127
31 238 56 245 57 9 1 12 -337 12 -1656z m4049 1159 l163 -157 -1433 -1291
c-789 -710 -1847 -1663 -2352 -2118 l-917 -826 2 268 3 268 2180 2006 c1199
1104 2182 2007 2185 2007 3 0 79 -70 169 -157z m11181 -797 l0 -365 -675 0
-675 0 0 365 0 365 675 0 675 0 0 -365z m-10422 59 c11 -9 -449 -418 -2375
-2105 -1313 -1152 -2396 -2100 -2406 -2108 -15 -12 -31 0 -149 114 -73 70
-134 130 -136 135 -2 4 1071 963 2384 2130 l2386 2121 142 -137 c77 -76 147
-143 154 -150z m505 -492 l137 -137 -2386 -2070 c-1312 -1139 -2402 -2083
-2421 -2099 l-35 -29 -149 149 -148 149 2422 2087 c1332 1148 2427 2087 2432
2087 6 1 72 -61 148 -137z m9917 -657 l0 -255 -675 0 -675 0 0 255 0 255 675
0 675 0 0 -255z m-9335 91 c140 -134 140 -134 120 -154 -11 -11 -1093 -968
-2404 -2127 l-2384 -2107 -159 159 -160 160 2418 2101 c1330 1156 2421 2102
2424 2102 3 0 68 -61 145 -134z m721 -713 c-1 -9 -4657 -4133 -4790 -4242 -16
-13 -28 -4 -134 102 l-117 117 25 24 c14 13 1093 974 2399 2136 l2374 2111
122 -118 c67 -65 122 -124 121 -130z m8239 -132 c-23 -21 -497 -432 -957 -829
-17 -14 -18 7 -18 421 l0 437 502 0 503 0 -30 -29z m-7735 -346 c83 -85 85
-86 65 -103 -11 -9 -1095 -968 -2407 -2129 -1313 -1162 -2391 -2113 -2395
-2113 -5 0 -63 55 -131 123 l-122 123 2387 2150 2388 2151 65 -58 c36 -32 103
-96 150 -144z m8110 -345 l0 -389 -2172 -1849 c-1195 -1017 -2174 -1848 -2176
-1847 -7 5 -100 671 -94 677 12 12 4437 3797 4440 3798 1 0 2 -175 2 -390z
m-7262 -481 l244 -237 448 -3229 c247 -1775 452 -3240 454 -3255 l6 -28 -265
0 -264 0 -6 33 c-3 17 -223 1596 -490 3507 -267 1911 -488 3495 -491 3520 l-7
45 64 -60 c35 -33 173 -166 307 -296z m-243 -3335 c261 -1859 475 -3388 475
-3397 0 -15 -22 -17 -225 -17 l-225 0 -5 22 c-13 63 -936 6422 -933 6435 2 8
98 95 213 193 169 144 211 175 217 162 4 -9 221 -1538 483 -3398z m7468 1872
c-220 -196 -4098 -3575 -4100 -3572 -3 2 -31 181 -62 398 l-59 393 22 22 c11
12 968 828 2126 1812 l2105 1789 3 -404 2 -404 -37 -34z m-6014 284 l169 -165
351 -2690 c194 -1479 351 -2696 351 -2702 0 -10 -62 -13 -274 -13 l-274 0 -6
27 c-6 31 -886 6076 -886 6088 0 7 203 -187 569 -545z m-2998 -2002 c-6 -1300
-14 -2634 -17 -2966 l-6 -602 -269 0 -269 0 -2 2655 c-1 1460 -3 2689 -3 2729
l0 75 285 240 c156 132 286 238 288 236 3 -2 0 -1068 -7 -2367z m-3851 -783
c1427 -1412 2645 -2617 2705 -2676 l110 -109 -330 2 -330 3 -2485 2498 -2485
2499 -3 286 -2 287 112 -111 c62 -61 1281 -1267 2708 -2679z m4649 -120 c193
-1436 353 -2622 355 -2637 l6 -28 -391 0 -391 0 7 373 c9 542 55 4443 55 4696
0 118 2 212 5 210 2 -3 162 -1179 354 -2614z m-1689 88 l0 -2428 -295 295
-294 295 -2 1884 -1 1885 294 248 c161 136 294 248 296 248 1 0 2 -1092 2
-2427z m4871 1862 l247 -240 16 -85 c9 -47 133 -1016 277 -2155 144 -1138 264
-2085 266 -2103 l6 -32 -269 2 -268 3 -358 2500 c-196 1375 -357 2509 -358
2519 0 14 28 -7 98 -75 53 -52 208 -202 343 -334z m5069 -304 l0 -419 -1962
-1791 c-1079 -985 -1964 -1791 -1968 -1791 -3 0 -33 186 -66 413 l-61 412 26
27 c24 25 4023 3566 4029 3567 1 1 2 -187 2 -418z m-13368 -2233 l2070 -2078
-318 0 -319 1 -1890 1936 -1890 1935 -3 282 -2 281 141 -140 c77 -77 1072
-1075 2211 -2217z m2498 745 l0 -1568 -275 275 -275 275 0 1065 1 1065 267
227 c147 124 270 227 275 227 4 1 7 -704 7 -1566z m-892 -304 l-3 -369 -283
276 c-155 152 -287 284 -292 295 -14 25 -61 382 -52 390 4 4 147 125 317 269
l310 261 3 -376 c1 -207 1 -543 0 -746z m-2542 -606 c775 -786 1516 -1537
1648 -1670 l240 -243 -331 0 -331 0 -1321 1356 -1321 1356 0 314 c0 173 2 314
4 314 2 0 638 -642 1412 -1427z m14304 914 l0 -373 -1361 -1227 -1360 -1227
-425 0 -425 0 233 209 c128 115 931 835 1783 1600 853 765 1551 1390 1553
1391 1 0 2 -168 2 -373z m-14625 -1772 c439 -456 848 -881 909 -942 l111 -113
-296 0 -296 0 -761 792 -762 792 0 303 0 303 148 -153 c82 -83 508 -525 947
-982z m14622 -1052 c-2 -2 -438 -2 -969 -1 l-966 3 966 862 967 862 3 -861 c1
-474 1 -863 -1 -865z m-15125 475 l470 -478 -531 0 -531 0 0 537 0 537 61 -59
c33 -33 272 -275 531 -537z"/>
</g>
</svg>
