<svg width="221" height="64" viewBox="0 0 221 64" fill="none" xmlns="http://www.w3.org/2000/svg">
<path d="M14.9063 7.26499H20.3681V9.42648H22.5889C27.6906 9.42648 33.9926 11.4379 33.9926 17.9523C33.9926 23.7463 29.071 26.4482 22.4988 26.4482H20.3681V29.06H14.9063V26.4482H12.7156C6.1434 26.4482 1.28179 23.7463 1.28179 17.9523C1.28179 11.4379 7.55387 9.42648 12.6556 9.42648H14.9063V7.26499ZM14.9063 22.3354V13.5393H13.2858C10.0447 13.5393 6.7436 14.7401 6.7436 18.0124C6.7436 21.0445 10.0747 22.3354 13.3158 22.3354H14.9063ZM20.3681 13.5393V22.3354H21.9887C25.2297 22.3354 28.5308 21.1045 28.5308 18.0724C28.5308 14.8002 25.2297 13.5393 21.9887 13.5393H20.3681Z" fill="black"/>
<path d="M33.9737 29.06L44.2971 7.26499H49.5188L59.4521 29.06H53.3901L51.4094 24.4368H41.8063L39.8556 29.06H33.9737ZM43.6669 20.0238H49.4288L46.5178 13.2991L43.6669 20.0238Z" fill="black"/>
<path d="M66.7323 7.26499V15.3706H77.2058V7.26499H82.6676V29.06H77.2058V19.8436H66.7323V29.06H61.2705V7.26499H66.7323Z" fill="black"/>
<path d="M87.5292 7.26499H106.886V11.7381H92.9911V15.3706H105.355V19.8436H92.9911V24.5869H106.886V29.06H87.5292V7.26499Z" fill="black"/>
<path d="M110.945 29.06V7.26499H123.85C128.951 7.26499 131.862 10.0869 131.862 14.6801C131.862 19.3033 128.951 22.2153 123.85 22.2153H116.407V29.06H110.945ZM116.407 11.7381V17.7422H121.419C124.81 17.7422 126.4 17.1718 126.4 14.7702C126.4 12.2784 125.02 11.7381 121.779 11.7381H116.407Z" fill="black"/>
<path d="M141.025 7.26499V15.3706H151.498V7.26499H156.96V29.06H151.498V19.8436H141.025V29.06H135.563V7.26499H141.025Z" fill="black"/>
<path d="M167.283 7.26499V15.3706H175.056C179.677 15.3706 182.348 18.0424 182.348 22.2753C182.348 26.4782 179.737 29.06 175.086 29.06H161.821V7.26499H167.283ZM167.283 19.8436V24.5869H173.135C175.806 24.5869 176.886 24.1366 176.886 22.1252C176.886 20.1739 175.596 19.8436 172.865 19.8436H167.283ZM193.272 7.26499V29.06H187.81V7.26499H193.272Z" fill="black"/>
<path d="M198.132 7.26499H203.384V22.6356L214.278 7.26499H221V29.06H215.748V13.5393L204.765 29.06H198.132V7.26499ZM203.114 0H205.755C205.935 0.96066 206.775 2.16149 209.056 2.16149C211.607 2.16149 212.327 0.96066 212.477 0H215.058C214.968 1.50103 213.978 5.34367 209.056 5.34367C204.194 5.34367 203.204 1.50103 203.114 0Z" fill="black"/>
<path d="M5.78328 37.4357H25.7099V54.7576H28.2908V63.8539H23.069V59.2307H6.20342V63.8539H0.981689V54.7576H2.69226C5.36314 52.8663 5.78328 48.5734 5.78328 43.8301V37.4357ZM20.2481 41.9088H11.065V43.9802C11.065 49.8342 10.1347 53.4667 8.30412 54.7576H20.2481V41.9088Z" fill="black"/>
<path d="M31.6709 59.2307V37.4357H45.7455C50.6372 37.4357 53.098 39.237 53.098 42.8695C53.098 44.9709 52.0776 46.6521 50.127 47.6427C52.6478 48.4533 53.9082 50.2846 53.9082 53.0164C53.9082 56.769 51.3574 59.2307 46.8559 59.2307H31.6709ZM37.1327 49.9843V54.7576H44.3951C46.9759 54.7576 48.2063 54.4874 48.2063 52.5061C48.2063 50.6448 47.006 49.9843 44.3951 49.9843H37.1327ZM37.1327 41.9088V46.1717H43.5848C46.1657 46.1717 47.3961 45.7815 47.3961 43.9202C47.3961 42.239 46.1957 41.9088 43.5848 41.9088H37.1327Z" fill="black"/>
<path d="M69.4911 36.8653C77.5038 36.8653 82.5155 41.4285 82.5155 48.3332C82.5155 55.238 77.5038 59.8011 69.4911 59.8011C61.4785 59.8011 56.4368 55.238 56.4368 48.3332C56.4368 41.4285 61.4785 36.8653 69.4911 36.8653ZM69.4911 41.3384C65.1397 41.3384 62.4388 43.9802 62.4388 48.3332C62.4388 52.6862 65.1397 55.328 69.4911 55.328C73.8426 55.328 76.5135 52.6862 76.5135 48.3332C76.5135 43.9502 73.8426 41.3384 69.4911 41.3384Z" fill="black"/>
<path d="M86.2104 59.2307V37.4357H99.1147C104.216 37.4357 107.127 40.2577 107.127 44.8508C107.127 49.474 104.216 52.386 99.1147 52.386H91.6723V59.2307H86.2104ZM91.6723 41.9088V47.9129H96.6839C100.075 47.9129 101.666 47.3425 101.666 44.9409C101.666 42.4492 100.285 41.9088 97.044 41.9088H91.6723Z" fill="black"/>
</svg>
